<?xml version="1.0" encoding="UTF-8"?>
<svg width="35px" height="30px" viewBox="0 0 35 30" version="1.1" xmlns="http://www.w3.org/2000/svg" xmlns:xlink="http://www.w3.org/1999/xlink">
    <title>编组 3</title>
    <g id="页面-1" stroke="none" stroke-width="1" fill="none" fill-rule="evenodd">
        <g id="iPhone-11-Pro" transform="translate(-215.000000, -250.000000)">
            <rect fill="#FFFFFF" x="0" y="0" width="375" height="900"></rect>
            <g id="合作" transform="translate(207.000000, 250.000000)">
                <g transform="translate(8.000000, 0.000000)">
                    <circle id="椭圆形" fill="#C5CEF5" cx="11" cy="10" r="9"></circle>
                    <g id="编组" fill="#000000" fill-rule="nonzero">
                        <path d="M32.3750472,3.91178129 C28.7653427,-0.0374490061 22.6861643,-0.469369912 18.5521453,2.92941235 C18.4619112,2.98599733 18.3774877,3.05463593 18.2971657,3.13298437 L18.0961898,3.33086441 L17.8688956,3.5518472 L17.8224114,3.59838752 L17.2164076,2.99503754 L16.9453636,2.73320641 L16.9484398,2.73320641 C12.939518,-1.03890283 6.63441261,-0.888232743 2.81176944,3.07137705 C-1.01053194,7.03098683 -0.925424806,13.3229695 3.00351683,17.1774451 L14.5001572,28.6474563 L14.7141213,28.8466756 C16.426176,30.3506979 18.9810989,30.3878631 20.7362198,28.9337294 C20.8801158,28.8583944 21.0117072,28.7619655 21.1268923,28.6471215 L27.8920547,21.8960973 L27.9023086,21.9061419 L32.084179,17.7339199 C35.8565782,13.9397124 35.9844098,7.86067676 32.3750472,3.91178129 Z M28.1299445,19.2188573 C27.1489908,20.2179673 26.693719,19.5272287 26.2500681,19.0849283 L24.4385509,17.5447452 C23.827762,16.9357033 22.9688294,16.9085827 22.6270337,17.2434051 C22.1826992,17.6786742 22.8112615,18.538833 23.4217087,19.1478749 L25.3056866,21.0275679 C25.5374241,21.2589302 25.6006563,22.0648477 25.1905014,22.5001169 C24.7803466,22.935386 23.986697,22.8315911 23.7549595,22.6005636 L21.7041853,20.3907357 C20.5072167,19.2275627 20.0129801,19.3018932 19.7559497,19.5536797 C19.0381788,20.2568067 19.8584884,21.0938628 20.4395411,21.7969898 L22.5244949,23.7054775 C22.7562324,23.9368398 22.6612132,24.8103915 22.2510584,25.1786961 C21.8409035,25.5470008 20.8421765,25.4435407 20.610439,25.2121784 L18.4571261,23.3036907 C17.8463371,22.6943139 16.9706565,21.9138428 16.4063518,22.4666346 C15.9278378,22.935386 16.8212918,24.0670857 17.4317389,24.6764625 L19.1065379,26.3170923 C19.3632265,26.5735663 19.1714791,27.4531447 18.8672809,27.7568287 C18.5261688,28.0973431 17.5923829,27.9687713 17.2943371,27.6918731 C17.2789563,27.6778106 17.2639172,27.6630784 17.24922,27.6483462 L4.91039507,15.3379308 L4.65233931,15.0680639 C1.97266098,12.113591 2.08613715,7.58143487 4.91039507,4.76423914 L4.91210405,4.76423914 C6.31756799,3.3620029 8.22342084,2.57450059 10.2113047,2.57450059 C12.1988467,2.57450059 14.1050413,3.3620029 15.5105053,4.76423914 L15.7336979,4.98689604 C15.966119,5.21892797 15.9654354,5.59493353 15.7319889,5.82596099 L10.4563722,11.0511995 C10.2232675,11.2822269 10.2225839,11.6585673 10.455005,11.8902644 C10.455005,11.8902644 11.2155004,13.0510937 12.8486003,14.2785527 C13.8087045,15.000095 16.9778342,15.1755419 18.8331013,13.3259829 C18.8331013,13.3259829 20.4740625,11.8333446 21.0547734,11.3505307 C21.6354843,10.8677168 22.6530101,11.9060011 22.884064,12.1366937 L27.8206194,17.0632706 C27.8291643,17.0716412 28.9844338,18.348319 28.1299445,19.2188573 Z M30.0098209,16.3393846 C30.0098209,16.3393846 28.5927359,14.9589118 28.1641241,14.5313436 C28.1641241,14.5313436 23.4473434,10.5804392 23.4131638,9.97775884 C23.3789842,9.37507851 24.8487057,8.37061129 24.8487057,8.37061129 C25.1221423,7.83489543 24.9170649,7.09828614 24.50691,6.76346373 C23.7399205,6.13734583 22.7490547,6.65565092 22.1143401,7.26569734 L17.2608411,11.953211 C16.9532249,12.2619173 16.9532249,12.6228559 15.5860421,12.9576783 C15.3208087,13.0226338 13.9467899,12.7628116 13.6378066,12.4554447 L12.7149582,11.5514242 L17.6368164,6.93087494 L18.7647422,5.89292547 L19.9952067,4.85497601 C22.9066225,2.07461074 27.3892732,2.43086178 30.1967831,5.31569164 C33.0042931,8.2005215 32.8812466,13.5178362 30.0098209,16.3393846 Z" id="形状"></path>
                    </g>
                </g>
            </g>
        </g>
    </g>
</svg>