<?xml version="1.0" encoding="UTF-8"?>
<svg width="35px" height="30px" viewBox="0 0 35 30" version="1.1" xmlns="http://www.w3.org/2000/svg" xmlns:xlink="http://www.w3.org/1999/xlink">
    <title>编组 4</title>
    <g id="页面-1" stroke="none" stroke-width="1" fill="none" fill-rule="evenodd">
        <g id="iPhone-11-Pro" transform="translate(-306.000000, -250.000000)">
            <g id="精选课程" transform="translate(298.000000, 250.000000)">
                <g transform="translate(8.000000, 0.000000)">
                    <rect id="矩形" fill="#C5CEF5" x="1" y="10" width="13" height="17"></rect>
                    <g id="编组" fill="#000000" fill-rule="nonzero">
                        <path d="M18.4375,30 L16.5625,30 C16.125,30 15.75,29.6822034 15.625,29.3008474 L15.4375,28.9194915 C15,28.4745762 13.625,28.2838983 11.25,28.3474576 L0.937499999,28.3474576 C0.437500012,28.3474576 0,27.9025423 0,27.3940678 L0,0.95338983 C0,0.444915266 0.437500012,0 0.937499999,0 L12.3125,0 C14.25,0 16.1875,0.699152529 17.5,1.90677966 C18.8125,0.699152529 20.8125,0 22.6875,0 L34.0625,0 C34.5625,0 35,0.444915266 35,0.95338983 L35,27.3940678 C35,27.9025423 34.5625,28.3474576 34.0625,28.3474576 L24.6875,28.3474576 C20.5625,28.2838983 19.875,28.6652542 19.5625,28.8559322 C19.4375,28.9830508 19.375,29.1101695 19.3125,29.3008474 C19.25,29.6822034 18.875,30 18.4375,30 Z M17.1875,28.0932203 L17.8125,28.0932203 C18,27.7754237 18.1875,27.5211864 18.4375,27.3305084 L18.5,27.2669491 C19.1875,26.7584746 20.1875,26.3771186 24.75,26.4406779 L33.125,26.4406779 L33.125,1.90677966 L22.6875,1.90677966 C20.9375,1.90677966 19.125,2.66949152 18.1875,3.87711862 C18.0625,4.06779658 17.75,4.19491521 17.5,4.19491525 C17.25,4.19491525 16.9375,4.06779662 16.75,3.87711862 C15.8125,2.73305082 14,1.90677966 12.25,1.90677966 L1.875,1.90677966 L1.875,26.4406779 L11.25,26.4406779 C15.125,26.3771186 16.125,26.9491525 16.6875,27.5211864 C16.875,27.7118644 17.0625,27.9025423 17.1875,28.0932203 Z" id="形状"></path>
                        <path d="M13.5625,9.34322033 L4.75000001,9.34322033 C4.25000002,9.34322033 3.81250001,8.89830507 3.81250001,8.3898305 C3.81250001,7.88135594 4.25000002,7.43644067 4.75000001,7.43644067 L13.5625,7.43644067 C14.0625,7.43644067 14.5,7.88135594 14.5,8.3898305 C14.5,8.89830507 14.0625,9.34322033 13.5625,9.34322033 Z M13.5625,14.5550847 L4.75000001,14.5550847 C4.25000002,14.5550847 3.81250001,14.1101694 3.81250001,13.6016949 C3.81250001,13.0932203 4.25000002,12.6483051 4.75000001,12.6483051 L13.5625,12.6483051 C14.0625,12.6483051 14.5,13.0932203 14.5,13.6016949 C14.5,14.1101694 14.0625,14.5550847 13.5625,14.5550847 Z M13.5625,19.7669491 L4.75000001,19.7669491 C4.25000002,19.7669491 3.81250001,19.3220339 3.81250001,18.8135593 C3.81250001,18.3050847 4.25000002,17.8601695 4.75000001,17.8601695 L13.5625,17.8601695 C14.0625,17.8601695 14.5,18.3050847 14.5,18.8135593 C14.5,19.3220339 14.0625,19.7669491 13.5625,19.7669491 Z M29.8125,14.5550847 L21,14.5550847 C20.5,14.5550847 20.0625,14.1101694 20.0625,13.6016949 C20.0625,13.0932203 20.5,12.6483051 21,12.6483051 L29.8125,12.6483051 C30.3125,12.6483051 30.75,13.0932203 30.75,13.6016949 C30.75,14.1101694 30.3125,14.5550847 29.8125,14.5550847 Z M29.8125,19.7669491 L21,19.7669491 C20.5,19.7669491 20.0625,19.3220339 20.0625,18.8135593 C20.0625,18.3050847 20.5,17.8601695 21,17.8601695 L29.8125,17.8601695 C30.3125,17.8601695 30.75,18.3050847 30.75,18.8135593 C30.75,19.3220339 30.3125,19.7669491 29.8125,19.7669491 Z M17.5,29.7457627 C17,29.7457627 16.5625,29.3008474 16.5625,28.7923729 L16.5625,2.98728812 C16.5625,2.47881356 17,2.03389829 17.5,2.03389829 C18,2.03389829 18.4375,2.47881356 18.4375,2.98728812 L18.4375,28.7923729 C18.4375,29.3008474 18,29.7457627 17.5,29.7457627 Z M24.6875,10.2330508 C24.5,10.2330508 24.375,10.1694915 24.25,10.1059322 C23.9375,9.97881356 23.75,9.66101693 23.75,9.279661 L23.75,0.95338983 C23.75,0.444915266 24.1875,0 24.6875,0 L30.375,0 C30.875,0 31.3125,0.444915266 31.3125,0.95338983 L31.3125,9.279661 C31.3125,9.5974576 31.125,9.91525423 30.8125,10.1059322 C30.5,10.2966102 30.1875,10.2966102 29.875,10.1059322 L27.5,8.7076271 L25.125,10.1059322 C25,10.1694915 24.8125,10.2330508 24.6875,10.2330508 L24.6875,10.2330508 Z M25.625,1.90677966 L25.625,7.62711864 L27.0625,6.80084744 C27.375,6.61016947 27.6875,6.61016947 28,6.80084744 L29.4375,7.62711864 L29.4375,1.90677966 L25.625,1.90677966 Z" id="形状"></path>
                    </g>
                </g>
            </g>
        </g>
    </g>
</svg>