<?xml version="1.0" encoding="UTF-8"?>
<svg width="35px" height="30px" viewBox="0 0 35 30" version="1.1" xmlns="http://www.w3.org/2000/svg" xmlns:xlink="http://www.w3.org/1999/xlink">
    <title>编组 2</title>
    <g id="页面-1" stroke="none" stroke-width="1" fill="none" fill-rule="evenodd">
        <g id="iPhone-11-Pro" transform="translate(-124.000000, -250.000000)">
            <rect fill="#FFFFFF" x="0" y="0" width="375" height="900"></rect>
            <g id="赛事" transform="translate(116.000000, 250.000000)">
                <g transform="translate(8.000000, 0.000000)">
                    <polygon id="矩形" fill="#C5CEF5" transform="translate(11.667011, 22.027749) rotate(-21.000000) translate(-11.667011, -22.027749) " points="5.16701124 17.1543853 14.6756865 16.901112 18.1670112 27.1543853 5.16701124 27.1543853"></polygon>
                    <g id="编组" transform="translate(0.000000, 1.000000)" fill="#000000" fill-rule="nonzero">
                        <path d="M34.9484378,15.6969778 L29.9958026,0 L4.73919912,5.32201426 L5.92572015,9.2234566 L0,10.778561 C0,10.778561 2.76548907,19.5391346 4.58543333,25.3171912 C6.40767261,31.0906874 10.80721,28.3498729 10.80721,28.3498729 C10.80721,28.3498729 29.8948221,20.3736921 32.7934219,19.1583393 C35.5290758,18.0182334 34.9484378,15.6969778 34.9484378,15.6969778 Z M6.59127354,24.3526617 L2.82056935,12.4089124 L6.63028874,11.5333111 L11.2685073,26.972625 L12.8933756,25.9921339 C7.72500931,28.74891 6.59127354,24.3526617 6.59127354,24.3526617 Z M32.0750832,17.8768602 C32.0750832,17.8768602 28.4466698,19.2746301 24.2215533,20.9961899 L21.5111445,12.4111926 L12.6386293,15.1634082 L15.6336196,24.6627705 C14.7500401,25.0732086 13.955966,25.4517237 13.2927076,25.7891951 L8.64989902,11.0727083 L8.64989902,11.0727083 L7.35551243,6.95920631 L29.3922146,1.9176581 C29.3922146,1.9176581 32.8071919,12.7623453 33.4819254,14.8989037 C34.1566588,17.0354621 32.0750832,17.8768602 32.0750832,17.8768602 Z" id="形状"></path>
                        <polygon id="路径" points="30.7164363 10.0648547 23.3517438 12.3861103 23.9277918 14.2171204 31.253469 11.7636125"></polygon>
                        <polygon id="路径" points="24.2949936 15.3800284 24.8687465 17.2087582 32.1301635 14.5431906 31.5931308 12.8444329"></polygon>
                        <path d="M14.1303869,7.21459003 L14.5962743,8.68760683 C14.8372505,9.45147777 15.0782267,10.1287007 15.3559231,10.778561 L15.3398581,10.7831214 C14.9198709,10.2791946 14.4218534,9.7273834 13.9399009,9.27362125 L12.2392973,7.67747302 L10.7957349,8.03318605 L12.4389633,13.2434699 L13.561224,12.9128392 L13.0700915,11.3577348 C12.8061652,10.5140565 12.5605989,9.79350954 12.3058526,9.11628664 L12.3356878,9.1071658 C12.778625,9.64301556 13.3477879,10.2107883 13.8366254,10.6736713 L15.5739493,12.3222644 L16.7857154,11.9665514 L15.2067474,6.95236568 L14.1303869,7.21459003 Z" id="路径"></path>
                        <polygon id="路径" points="18.5964796 10.4365293 18.2269828 9.27362125 20.0033218 8.78565594 19.7233304 7.89637335 17.9424013 8.36381676 17.6210997 7.3445621 19.5098943 6.86343742 19.2253128 5.96731419 16.2096675 6.70610281 17.7748655 11.6746842 20.8501811 10.7762808 20.5655997 9.87787737"></polygon>
                        <path d="M23.2622384,7.86217017 C23.2186332,7.35824337 23.1497828,6.89536038 23.0648674,6.34582935 L23.0786374,6.34354913 C23.3035486,6.86343742 23.5100996,7.28071617 23.7441908,7.72991789 L24.7494059,9.6316145 L25.8074063,9.32378591 L25.4608596,4.44413273 L24.4740045,4.68583518 L24.7126858,6.65593815 C24.7998962,7.23283172 24.8710416,7.80060445 24.9697271,8.33417401 L24.958252,8.33873443 C24.7287508,7.84164826 24.5061347,7.36508401 24.2353233,6.84975615 L23.2668284,4.9799825 L22.1927629,5.24220685 L22.4153791,7.26475469 C22.4865244,7.88269208 22.5599648,8.48010756 22.6517653,9.01595732 L22.6357002,9.01823754 C22.410789,8.55991497 22.1239126,7.97390055 21.8416261,7.43349036 L20.8754262,5.56371671 L19.7462805,5.83962233 L22.3557088,10.3339197 L23.4779695,10.003289 L23.2622384,7.86217017 Z" id="路径"></path>
                        <path d="M27.7604613,6.69698196 C28.304379,6.74714662 28.5522403,6.85203636 28.6394507,7.13250241 C28.7312512,7.4220893 28.5706004,7.67519281 28.1483182,7.79832424 C27.7558712,7.90777441 27.319819,7.88041186 27.0283525,7.80744509 L27.1040879,8.70584852 C27.3817843,8.78109551 27.8912769,8.78565594 28.3594593,8.64656302 C29.4610649,8.32277295 29.7640065,7.54522074 29.5322103,6.80415191 C29.3371343,6.17937389 28.885017,5.86014424 28.0840579,5.75753471 C27.4804698,5.68000751 27.2119535,5.61388137 27.127038,5.32657469 C27.0558927,5.09855351 27.1844133,4.84316979 27.5860404,4.74284047 C27.9761924,4.64251116 28.304379,4.69267582 28.490275,4.74284047 L28.4420797,3.88320064 C28.1643833,3.82163492 27.8063615,3.80339323 27.3381791,3.9151236 C26.3742742,4.14998541 25.9542871,4.8842136 26.1975583,5.66176582 C26.4041094,6.31618659 26.9939274,6.61261412 27.7604613,6.69698196 Z" id="路径"></path>
                    </g>
                    <polygon id="矩形" fill="#C5CEF5" transform="translate(17.776997, 19.541583) rotate(-21.000000) translate(-17.776997, -19.541583) " points="14.1905469 14.5463588 24.2413515 14.4787074 24.2823649 24.211463 11.2716296 24.6044577"></polygon>
                </g>
            </g>
        </g>
    </g>
</svg>