<?xml version="1.0" encoding="UTF-8"?>
<svg width="35px" height="30px" viewBox="0 0 35 30" version="1.1" xmlns="http://www.w3.org/2000/svg" xmlns:xlink="http://www.w3.org/1999/xlink">
    <title>编组</title>
    <g id="页面-1" stroke="none" stroke-width="1" fill="none" fill-rule="evenodd">
        <g id="iPhone-11-Pro" transform="translate(-34.000000, -250.000000)" fill-rule="nonzero">
            <g id="投稿" transform="translate(25.000000, 250.000000)">
                <g transform="translate(9.000000, 0.000000)">
                    <path d="M32.5174868,14.6502258 L19.9352681,27.8658142 L11.3452571,27.8658142 L6.02302938,21.8651958 C5.46413185,21.3095964 5.46413185,20.4089696 6.02302938,19.8533702 L21.888064,4.08671863 C22.4471303,3.53128697 23.3533769,3.53128697 23.9124432,4.08671863 L32.5174868,12.6376888 C32.7861022,12.9045303 32.9370179,13.2665099 32.9370179,13.6439573 C32.9370179,14.0214046 32.7861022,14.3833843 32.5174868,14.6502258 Z" id="路径" fill="#C5CEF5"></path>
                    <path d="M33.6019757,27.3315564 L21.7348754,27.2817588 L34.3249683,15.0194399 C35.0614502,14.2871846 35.0614502,13.1003253 34.3249683,12.36807 L22.4156338,0.54823896 C21.6775841,-0.18274632 20.4836218,-0.18274632 19.745572,0.54823896 L1.11025893,19.0445139 C0.374566014,19.7770937 0.374566014,20.963304 1.11025893,21.6958838 L6.87272465,27.4140783 L1.39730843,27.330845 C0.625596284,27.3308451 0,27.9525619 0,28.7194885 L0,28.6149134 C0.00197315649,29.3804505 0.626991886,30 1.39730843,30 L33.6019757,30 C33.972565,30 34.3280513,29.8540664 34.5902317,29.5937786 C34.8524121,29.3334909 35,28.9803589 35,28.6120678 L35,28.7194885 C35,28.3511973 34.8524121,27.9980654 34.5902317,27.7377776 C34.3280513,27.4774898 33.972565,27.3313677 33.6019757,27.3315564 L33.6019757,27.3315564 Z M10.4225467,28.6284299 L8.31226732,26.5340825 L2.27420542,20.5384438 C2.18002945,20.444137 2.18002945,20.2919923 2.27420542,20.1976855 L20.9088027,1.70141055 C21.0037813,1.60734692 21.1574245,1.60734692 21.2524031,1.70141055 L33.1610218,13.5240872 C33.2063522,13.569059 33.2318251,13.6301004 33.2318251,13.693755 C33.2318251,13.7574095 33.2063522,13.8184509 33.1610218,13.8634227 L20.4012762,26.5340825 L18.2909968,28.6284299 L10.4225467,28.6284299 L10.4225467,28.6284299 Z M21.1521863,3.69687405 C20.6564657,3.63856316 20.2058064,3.98746617 20.1414284,4.47940878 L18.4313003,17.9560792 L5.01585058,19.4578345 C4.53946127,19.5113748 4.18795776,19.925162 4.2147621,20.4008697 C4.24156644,20.8765773 4.63735741,21.2487779 5.11678321,21.249129 C5.15074836,21.249129 5.18468838,21.2472883 5.21843171,21.2434364 L19.3425574,19.6620049 C19.7583303,19.6157755 20.0878816,19.2920932 20.1392809,18.8794702 L21.9374565,4.69780708 C21.9673969,4.4607765 21.9011982,4.22164818 21.7534695,4.0331942 C21.6057408,3.84474022 21.3886259,3.72245211 21.1500388,3.69331706 L21.1521863,3.69687405 Z" id="形状" fill="#000005"></path>
                </g>
            </g>
        </g>
    </g>
</svg>